<svg width="450" height="189" viewBox="0 0 450 189" fill="none" xmlns="http://www.w3.org/2000/svg">
<path fill-rule="evenodd" clip-rule="evenodd" d="M77.668 185.296V152.272H0.355957V123.31L84.2898 2.81599H118.068V120.32H142.644V152.272H118.068V185.296H77.668ZM117.068 151.272H141.644V121.32H117.068V3.81599H84.812L1.35596 123.624V151.272H78.668V184.296H117.068V151.272ZM78.668 121.32V60.1777L36.3991 121.32H78.668ZM38.3062 120.32H77.668V63.3827L38.3062 120.32ZM171.455 163.38L171.448 163.37C159.678 146.754 153.856 123.481 153.856 93.672C153.856 63.3598 159.675 40.1582 171.46 24.2136L171.461 24.2122C183.446 8.05873 200.484 0 222.44 0C244.562 0 261.605 8.05598 273.421 24.2151C285.205 40.1588 291.024 63.2738 291.024 93.416C291.024 123.394 285.202 146.753 273.432 163.37L273.429 163.374C261.616 179.878 244.572 188.112 222.44 188.112C200.476 188.112 183.436 179.876 171.455 163.38ZM243.558 139.823L243.562 139.817C248.403 130.134 250.88 114.712 250.88 93.416C250.88 72.1125 248.401 56.9616 243.571 47.8024L243.568 47.7961L243.565 47.7897C241.239 43.2218 238.32 39.851 234.829 37.6184C231.342 35.3882 227.225 34.256 222.44 34.256C217.655 34.256 213.515 35.3881 209.982 37.6213C206.448 39.8556 203.466 43.2282 201.056 47.7953C196.393 56.9604 194 72.0311 194 93.16C194 114.627 196.477 130.133 201.317 139.815C203.732 144.559 206.699 148.059 210.192 150.374C213.681 152.687 217.751 153.856 222.44 153.856C227.218 153.856 231.33 152.685 234.815 150.374C238.306 148.061 241.229 144.564 243.558 139.823ZM200.168 47.336C205.117 37.9493 212.541 33.256 222.44 33.256C232.339 33.256 239.677 37.9493 244.456 47.336C249.405 56.7227 251.88 72.0827 251.88 93.416C251.88 114.749 249.405 130.365 244.456 140.264C239.677 149.992 232.339 154.856 222.44 154.856C212.712 154.856 205.373 149.992 200.424 140.264C195.475 130.365 193 114.664 193 93.16C193 71.9973 195.389 56.7227 200.168 47.336ZM172.264 162.792C160.659 146.408 154.856 123.368 154.856 93.672C154.856 63.464 160.659 40.5093 172.264 24.808C184.04 8.936 200.765 1 222.44 1C244.285 1 261.011 8.936 272.616 24.808C284.221 40.5093 290.024 63.3787 290.024 93.416C290.024 123.283 284.221 146.408 272.616 162.792C261.011 179.005 244.285 187.112 222.44 187.112C200.765 187.112 184.04 179.005 172.264 162.792ZM384.668 185.296V152.272H307.356V123.31L391.29 2.81599H425.068V120.32H449.644V152.272H425.068V185.296H384.668ZM424.068 151.272H448.644V121.32H424.068V3.81599H391.812L308.356 123.624V151.272H385.668V184.296H424.068V151.272ZM385.668 121.32V60.1777L343.399 121.32H385.668ZM345.306 120.32H384.668V63.3827L345.306 120.32Z" fill="white"/>
</svg>
