<svg width="307" height="112" viewBox="0 0 307 112" fill="none" xmlns="http://www.w3.org/2000/svg">
<g clip-path="url(#clip0_1711_12569)">
<path d="M0 22.9L2.8 17.6C3.4 17.9 4 18.1 4.5 18.1C5 18.1 5.4 18 5.7 17.7C6 17.4 6.2 17 6.4 16.6C6.5 16.3 6.5 15.7 6.5 14.9V0H12.5V13.9C12.5 15.7 12.4 17 12.2 17.8C11.8 19.6 10.8 21.1 9.4 22.2C8 23.3 6.2 23.9 4.3 23.9C2.8 24.1 1.4 23.7 0 22.9Z" fill="white"/>
<path d="M16.8 0H34.2V5.5H22.8V8.3H31.4V13.7H22.8V18.6H34.2V24.1H16.8V0Z" fill="white"/>
<path d="M60.1 24.1H56.7L43.9 10.5V24.1H37.9V0H41.3L54.1 13.6V0H60.1V24.1V24.1Z" fill="white"/>
<path d="M63 19.8L66.6 15.5C68.9 17.5 71.2 18.5 73.5 18.5C74.1 18.5 74.6 18.4 75.1 18.3C75.6 18.2 76.1 18 76.5 17.7C76.9 17.4 77.1 17 77.1 16.6C77.1 16.4 77 16.2 76.9 16C76.8 15.8 76.6 15.7 76.4 15.5C76.2 15.4 75.9 15.2 75.7 15.1C75.5 15 75.2 14.9 74.7 14.8C74.2 14.7 73.9 14.6 73.6 14.6C73.3 14.5 72.9 14.5 72.4 14.4C71.9 14.3 71.4 14.2 71.1 14.2C70.2 14 69.4 13.8 68.8 13.6C68.1 13.4 67.4 13.1 66.7 12.7C66 12.3 65.4 11.9 64.9 11.5C64.4 11 64 10.5 63.7 9.8C63.4 9.1 63.2 8.3 63.2 7.4C63.2 5.3 64 3.5 65.6 2.1C67.2 0.7 69.3 0 72.1 0C75.4 0 78.5 1.1 81.3 3.2L77.9 7.5C77 6.8 76.1 6.3 75.1 6C74 5.6 73 5.4 72 5.4C71.2 5.4 70.5 5.5 70 5.7C69.4 5.9 69.1 6.3 69.1 6.8C69.1 7 69.1 7.2 69.2 7.3C69.3 7.4 69.4 7.6 69.7 7.7C69.9 7.8 70.2 7.9 70.4 8C70.6 8.1 70.9 8.2 71.4 8.3C71.8 8.4 72.2 8.5 72.5 8.5C72.8 8.6 73.3 8.6 73.9 8.7C74.6 8.8 75.2 8.9 75.7 9C76.2 9.1 76.8 9.3 77.5 9.5C78.2 9.7 78.7 9.9 79.2 10.2C79.7 10.5 80.2 10.8 80.7 11.2C81.2 11.6 81.6 12 81.9 12.5C82.2 13 82.5 13.6 82.7 14.2C82.9 14.9 83 15.6 83 16.4C83 17.8 82.6 19.1 81.8 20.3C81 21.5 79.8 22.3 78.4 23C77 23.6 75.4 24 73.6 24C71.9 24 70.1 23.7 68.3 23C66.4 22.3 64.7 21.3 63 19.8Z" fill="white"/>
<path d="M85.8 0H103.2V5.5H91.8V8.3H100.4V13.7H91.8V18.6H103.2V24.1H85.8V0Z" fill="white"/>
<path d="M129.1 24.1H125.7L113 10.5V24.1H107V0H110.4L123.2 13.6V0H129.2V24.1H129.1Z" fill="white"/>
<path d="M142.2 24.1V0H148.2V24.1H142.2Z" fill="white"/>
<path d="M174.7 24.1H171.3L158.6 10.5V24.1H152.6V0H156L168.8 13.6V0H174.8V24.1H174.7Z" fill="white"/>
<path d="M177.9 0H199.2V5.5H191.6V24H185.6V5.5H178V0H177.9Z" fill="white"/>
<path d="M202.4 0H219.8V5.5H208.4V8.3H217V13.7H208.4V18.6H219.8V24.1H202.4V0Z" fill="white"/>
<path d="M229.5 24.1H223.5V0H235.7C237.7 0 239.3 0.4 240.5 1.2C241.5 1.8 242.3 2.7 242.9 3.8C243.5 4.9 243.8 6.1 243.8 7.5C243.8 9.3 243.3 10.8 242.2 12.2C241.5 13 240.6 13.7 239.4 14.2L245.4 24.2H238.4L233.1 15H229.5V24.1ZM229.5 9.3H235.2C235.8 9.3 236.3 9.2 236.6 9.1C237.4 8.8 237.9 8.2 237.9 7.4C237.9 6.6 237.5 6 236.6 5.7C236.3 5.6 235.9 5.5 235.2 5.5H229.5V9.3Z" fill="white"/>
<path d="M247.7 24.1V0H253.7V24.1H247.7Z" fill="white"/>
<path d="M274.1 23.1C272.6 23.7 270.9 24 269.2 24C267.5 24 265.8 23.7 264.3 23.1C262.8 22.5 261.5 21.6 260.4 20.6C259.3 19.6 258.5 18.2999 257.9 16.7999C257.3 15.2999 257 13.7 257 12.1C257 10.5 257.3 8.79995 257.9 7.39995C258.5 5.99995 259.4 4.59995 260.4 3.59995C261.4 2.59995 262.8 1.69995 264.3 1.09995C265.8 0.499951 267.5 0.199951 269.2 0.199951C270.9 0.199951 272.6 0.499951 274.1 1.09995C275.6 1.69995 276.9 2.59995 278 3.59995C279.1 4.59995 279.9 5.89995 280.5 7.39995C281.1 8.89995 281.4 10.5 281.4 12.1C281.4 13.7 281.1 15.3999 280.5 16.7999C279.9 18.1999 279 19.6 278 20.6C277 21.6 275.6 22.5 274.1 23.1ZM273.7 7.39995C272.6 6.19995 271.1 5.49995 269.2 5.49995C267.3 5.49995 265.8 6.09995 264.7 7.39995C263.6 8.69995 263 10.2 263 12C263 13.8 263.6 15.4 264.7 16.7C265.8 17.9 267.3 18.6 269.2 18.6C271.1 18.6 272.6 18 273.7 16.7C274.8 15.5 275.4 13.9 275.4 12C275.4 10.1 274.8 8.59995 273.7 7.39995Z" fill="white"/>
<path d="M290.7 24.1H284.7V0H296.9C298.9 0 300.5 0.4 301.7 1.2C302.7 1.8 303.5 2.7 304.1 3.8C304.7 4.9 305 6.1 305 7.5C305 9.3 304.5 10.8 303.4 12.2C302.7 13 301.8 13.7 300.6 14.2L306.6 24.2H299.6L294.3 15H290.7V24.1V24.1ZM290.7 9.3H296.4C297 9.3 297.5 9.2 297.8 9.1C298.6 8.8 299.1 8.2 299.1 7.4C299.1 6.6 298.7 6 297.8 5.7C297.5 5.6 297.1 5.5 296.4 5.5H290.7V9.3Z" fill="white"/>
<path d="M1 61L4.6 56.7C6.9 58.7 9.2 59.7 11.5 59.7C12.1 59.7 12.6 59.6 13.1 59.5C13.6 59.4 14.1 59.2 14.5 58.9C14.9 58.6 15.1 58.1999 15.1 57.7999C15.1 57.5999 15 57.4 14.9 57.2C14.8 57 14.6 56.9 14.4 56.7C14.2 56.6 13.9 56.3999 13.7 56.2999C13.5 56.1999 13.2 56.1 12.7 56C12.3 55.9 11.9 55.7999 11.6 55.7999C11.3 55.6999 10.9 55.6999 10.4 55.5999C9.9 55.4999 9.4 55.4 9.1 55.4C8.2 55.2 7.4 54.9999 6.8 54.7999C6.1 54.5999 5.4 54.3 4.7 53.9C4 53.5 3.4 53.1 2.9 52.7C2.4 52.2 2 51.7 1.7 51C1.4 50.3 1.2 49.4999 1.2 48.5999C1.2 46.4999 2 44.6999 3.6 43.2999C5.2 41.8999 7.3 41.2 10.1 41.2C13.4 41.2 16.5 42.3 19.3 44.4L15.9 48.7C15.1 48.1 14.2 47.5 13.1 47.2C12 46.9 11 46.5999 10 46.5999C9.2 46.5999 8.5 46.7 8 46.9C7.4 47.1 7.1 47.5 7.1 48C7.1 48.2 7.1 48.4 7.2 48.5C7.3 48.7 7.4 48.8 7.7 48.9C7.9 49 8.2 49.1 8.4 49.2C8.6 49.3 8.9 49.4 9.4 49.5C9.8 49.6 10.2 49.7 10.5 49.7C10.8 49.8 11.3 49.8 11.9 49.9C12.6 50 13.2 50.1 13.7 50.2C14.2 50.3 14.8 50.5 15.5 50.7C16.2 50.9 16.7 51.1 17.2 51.4C17.7 51.7 18.2 52 18.7 52.4C19.2 52.8 19.6 53.2 19.9 53.7C20.2 54.2 20.5 54.8 20.7 55.4C20.9 56.1 21 56.7999 21 57.5999C21 58.9999 20.6 60.3 19.8 61.5C19 62.7 17.8 63.4999 16.4 64.1999C15 64.8999 13.4 65.1999 11.6 65.1999C9.9 65.1999 8.1 64.8999 6.3 64.1999C4.5 63.5999 2.7 62.5 1 61Z" fill="white"/>
<path d="M39.9 64.2999C38.4 64.8999 36.7 65.1999 35 65.1999C33.3 65.1999 31.6 64.8999 30.1 64.2999C28.6 63.6999 27.3 62.7999 26.2 61.7999C25.1 60.6999 24.3 59.4999 23.7 57.9999C23.1 56.4999 22.8 54.8999 22.8 53.2999C22.8 51.5999 23.1 49.9999 23.7 48.5999C24.3 47.0999 25.2 45.7999 26.2 44.7999C27.3 43.6999 28.6 42.8999 30.1 42.2999C31.6 41.6999 33.3 41.3999 35 41.3999C36.7 41.3999 38.4 41.6999 39.9 42.2999C41.4 42.8999 42.7 43.7999 43.8 44.7999C44.9 45.7999 45.7 47.0999 46.3 48.5999C46.9 50.0999 47.2 51.6999 47.2 53.2999C47.2 54.9999 46.9 56.5999 46.3 57.9999C45.7 59.4999 44.8 60.7999 43.8 61.7999C42.7 62.8999 41.4 63.6999 39.9 64.2999ZM39.5 48.5999C38.4 47.3999 36.9 46.6999 35 46.6999C33.1 46.6999 31.6 47.2999 30.5 48.5999C29.4 49.7999 28.8 51.3999 28.8 53.2999C28.8 55.1999 29.4 56.6999 30.5 57.9999C31.6 59.2999 33.1 59.8999 35 59.8999C36.9 59.8999 38.4 59.2999 39.5 57.9999C40.6 56.6999 41.2 55.1999 41.2 53.2999C41.2 51.3999 40.6 49.7999 39.5 48.5999Z" fill="white"/>
<path d="M50.5 41.2H56.5V59.7H67.8V65.3H50.5V41.2Z" fill="white"/>
<path d="M85.8 41.2H91.8V52.5C91.8 54.4 91.7 55.7 91.6 56.5C91.1 59.1 89.9 61.1999 88.1 62.7999C86.3 64.3999 83.9 65.1999 81.2 65.1999C78.5 65.1999 76.2 64.3999 74.3 62.7999C72.4 61.1999 71.2 59.1 70.7 56.5C70.5 55.7 70.4 54.3 70.4 52.5V41.2H76.4V54C76.4 54.7 76.5 55.4 76.7 56.2C77 57.3 77.5 58.0999 78.2 58.7999C78.9 59.3999 79.9 59.7999 81 59.7999C82.2 59.7999 83.1 59.4999 83.8 58.7999C84.5 58.0999 85 57.3 85.3 56.2C85.5 55.5 85.6 54.8 85.6 54V41.2H85.8Z" fill="white"/>
<path d="M94.7 41.2H116V46.7H108.4V65.1999H102.4V46.7999H94.8V41.2H94.7Z" fill="white"/>
<path d="M119.1 65.3V41.2H125.1V65.3H119.1V65.3Z" fill="white"/>
<path d="M145.6 64.2999C144.1 64.8999 142.4 65.1999 140.7 65.1999C139 65.1999 137.3 64.8999 135.8 64.2999C134.3 63.6999 133 62.7999 131.9 61.7999C130.8 60.6999 130 59.4999 129.4 57.9999C128.8 56.4999 128.5 54.8999 128.5 53.2999C128.5 51.5999 128.8 49.9999 129.4 48.5999C130 47.0999 130.9 45.7999 131.9 44.7999C132.9 43.7999 134.3 42.8999 135.8 42.2999C137.3 41.6999 139 41.3999 140.7 41.3999C142.4 41.3999 144.1 41.6999 145.6 42.2999C147.1 42.8999 148.4 43.7999 149.5 44.7999C150.6 45.7999 151.4 47.0999 152 48.5999C152.6 50.0999 152.9 51.6999 152.9 53.2999C152.9 54.9999 152.6 56.5999 152 57.9999C151.4 59.4999 150.5 60.7999 149.5 61.7999C148.4 62.8999 147.1 63.6999 145.6 64.2999ZM145.2 48.5999C144.1 47.3999 142.6 46.6999 140.7 46.6999C138.8 46.6999 137.3 47.2999 136.2 48.5999C135.1 49.7999 134.5 51.3999 134.5 53.2999C134.5 55.1999 135.1 56.6999 136.2 57.9999C137.3 59.1999 138.8 59.8999 140.7 59.8999C142.6 59.8999 144.1 59.2999 145.2 57.9999C146.3 56.7999 146.9 55.1999 146.9 53.2999C146.9 51.3999 146.3 49.7999 145.2 48.5999Z" fill="white"/>
<path d="M178.3 65.3H174.9L162.2 51.7V65.3H156.2V41.2H159.6L172.4 54.7999V41.2H178.4V65.3H178.3Z" fill="white"/>
<path d="M181.2 61L184.8 56.7C187.1 58.7 189.4 59.7 191.7 59.7C192.3 59.7 192.8 59.6 193.3 59.5C193.8 59.4 194.3 59.2 194.7 58.9C195.1 58.6 195.3 58.1999 195.3 57.7999C195.3 57.5999 195.2 57.4 195.1 57.2C195 57 194.8 56.9 194.6 56.7C194.4 56.6 194.1 56.3999 193.9 56.2999C193.7 56.1999 193.4 56.1 192.9 56C192.4 55.9 192.1 55.7999 191.8 55.7999C191.5 55.6999 191.1 55.6999 190.6 55.5999C190.1 55.4999 189.6 55.4 189.3 55.4C188.4 55.2 187.6 54.9999 187 54.7999C186.3 54.5999 185.6 54.3 184.9 53.9C184.2 53.5 183.6 53.1 183.1 52.7C182.6 52.2 182.2 51.7 181.9 51C181.6 50.3 181.4 49.4999 181.4 48.5999C181.4 46.4999 182.2 44.6999 183.8 43.2999C185.4 41.8999 187.5 41.2 190.3 41.2C193.6 41.2 196.7 42.3 199.5 44.4L196.1 48.7C195.3 48.1 194.4 47.5 193.3 47.2C192.2 46.9 191.2 46.5999 190.2 46.5999C189.4 46.5999 188.7 46.7 188.2 46.9C187.6 47.1 187.3 47.5 187.3 48C187.3 48.2 187.3 48.4 187.4 48.5C187.5 48.7 187.6 48.8 187.9 48.9C188.1 49 188.4 49.1 188.6 49.2C188.8 49.3 189.1 49.4 189.6 49.5C190 49.6 190.4 49.7 190.7 49.7C191 49.8 191.5 49.8 192.1 49.9C192.8 50 193.4 50.1 193.9 50.2C194.4 50.3 195 50.5 195.7 50.7C196.4 50.9 196.9 51.1 197.4 51.4C197.9 51.7 198.4 52 198.9 52.4C199.4 52.8 199.8 53.2 200.1 53.7C200.4 54.2 200.7 54.8 200.9 55.4C201.1 56.1 201.2 56.7999 201.2 57.5999C201.2 58.9999 200.8 60.3 200 61.5C199.2 62.7 198 63.4999 196.6 64.1999C195.2 64.8999 193.6 65.1999 191.8 65.1999C190.1 65.1999 188.3 64.8999 186.5 64.1999C184.6 63.5999 182.9 62.5 181.2 61Z" fill="white"/>
<path d="M12.3 86.3999H13.4V104.7H12.4V101.9C12.2 102.3 12 102.5 11.9 102.7C10.8 104.3 9.20002 105.1 7.20002 105.1C5.20002 105.1 3.60002 104.4 2.40002 102.9C1.40002 101.6 0.900024 99.8999 0.900024 97.8999C0.900024 95.8999 1.40002 94.0999 2.40002 92.8999C2.90002 92.1999 3.60002 91.6999 4.40002 91.2999C5.20002 90.8999 6.10002 90.6999 7.00002 90.6999C8.00002 90.6999 8.90003 90.8999 9.80002 91.2999C10.7 91.6999 11.4 92.2999 11.9 92.9999C12.1 93.2999 12.2 93.4999 12.3 93.6999V86.3999ZM11.1 102.2C11.9 101.1 12.3 99.6999 12.3 97.7999C12.3 95.9999 11.9 94.4999 11.1 93.3999C10.2 92.1999 8.90002 91.5999 7.20002 91.5999C5.50002 91.5999 4.20002 92.1999 3.30002 93.3999C2.50002 94.3999 2.10002 95.8999 2.10002 97.7999C2.10002 99.6999 2.50002 101.1 3.30002 102.2C3.70002 102.8 4.30002 103.3 5.00002 103.6C5.70002 103.9 6.40002 104.1 7.20002 104.1C8.90002 104.1 10.2 103.4 11.1 102.2Z" fill="white"/>
<path d="M22.4 104.1C24.7 104.1 26.4 103.1 27.4 101L28.3 101.5C27.1 103.9 25.2 105.2 22.4 105.2C20.3 105.2 18.7 104.5 17.6 103C16.6 101.7 16.1 100 16.1 98C16.1 95.9 16.6 94.2 17.6 92.9C18.8 91.4 20.4 90.7 22.4 90.7C24.5 90.7 26.1 91.4 27.2 92.9C28.2 94.2 28.7 96 28.7 98.3H17.3C17.4 100 17.8 101.4 18.5 102.4C19.4 103.5 20.7 104.1 22.4 104.1ZM18.5 93.5C17.8 94.4 17.4 95.6 17.3 97.1H27.5C27.4 95.6 27 94.4 26.3 93.5C25.9 92.9 25.3 92.5 24.6 92.1C23.9 91.8 23.2 91.6 22.4 91.7C21.6 91.7 20.9 91.8 20.2 92.1C19.5 92.4 18.9 92.9 18.5 93.5Z" fill="white"/>
<path d="M42.2 94.5999L41.1 94.8999C40.6 93.6999 39.9 92.8 38.9 92.3C38.2 91.9 37.4 91.6999 36.5 91.6999C35.6 91.6999 34.8 91.7999 34.1 92.1999C33.7 92.3999 33.4 92.6999 33.1 92.9999C32.8 93.2999 32.7 93.6999 32.7 94.0999C32.7 94.7999 32.9 95.2999 33.4 95.6999C33.8 96.0999 34.5 96.3999 35.4 96.5999C35.9 96.7999 36.9 96.9999 38.4 97.3999C39.5 97.6999 40.4 98.0999 41 98.6999C41.9 99.3999 42.3 100.3 42.3 101.3C42.3 101.8 42.2 102.4 41.9 102.9C41.6 103.4 41.2 103.9 40.7 104.2C39.8 104.8 38.5 105.1 36.9 105.1C34.9 105.1 33.4 104.5 32.4 103.4C31.8 102.7 31.3 101.6 30.9 100.2L32 99.8999C32.2 101 32.6 101.9 33.2 102.6C34 103.5 35.2 104 36.8 104C38.2 104 39.3 103.7 40.1 103.2C40.8 102.7 41.2 102 41.2 101.1C41.2 100.4 40.9 99.8999 40.4 99.3999C39.9 98.9999 39.1 98.7 38 98.3C37.6 98.2 36.8 97.8999 35.5 97.5999C34.2 97.1999 33.3 96.8999 32.8 96.3999C32.1 95.7999 31.7 94.9999 31.7 93.9999C31.7 93.3999 31.9 92.8 32.3 92.3C32.7 91.8 33.2 91.2999 33.8 91.0999C34.6 90.6999 35.6 90.4999 36.7 90.5999C37.8 90.5999 38.7 90.8 39.6 91.3C40.2 91.6 40.8 92.0999 41.4 92.6999C41.7 93.2999 42 93.9999 42.2 94.5999Z" fill="white"/>
<path d="M45.2 86.7H46.3V88.3H45.2V86.7ZM45.2 91H46.3V104.7H45.2V91Z" fill="white"/>
<path d="M60.7 90.9998H61.7V104C61.7 105.6 61.6 106.8 61.3 107.6C61.1 108.4 60.6 109.1 59.9 109.8C58.7 110.8 57.2 111.3 55.3 111.3C53.2 111.3 51.5 110.5 50.4 109C50.2 108.8 50.1 108.5 49.9 108.2L50.9 107.7C51 107.9 51.1 108.1 51.3 108.3C52.2 109.5 53.6 110.1 55.3 110.1C56.9 110.1 58.2 109.7 59.1 108.9C59.7 108.4 60.1 107.8 60.3 107.1C60.5 106.4 60.6 105.4 60.6 104V102.2L60.2 102.8C59.1 104.4 57.5 105.2 55.5 105.2C53.5 105.2 51.9 104.5 50.7 103C49.7 101.7 49.2 99.9998 49.2 97.9998C49.2 95.9998 49.7 94.1998 50.7 92.9998C51.2 92.2998 51.9 91.7998 52.7 91.3998C53.5 90.9998 54.4 90.7998 55.3 90.7998C56.3 90.7998 57.2 90.9998 58.1 91.3998C59 91.7998 59.7 92.3998 60.2 93.0998C60.4 93.2998 60.5 93.5998 60.7 93.8998V90.9998ZM59.5 102.2C60.3 101.1 60.7 99.6998 60.7 97.7998C60.7 95.9998 60.3 94.4998 59.5 93.3998C58.6 92.1998 57.3 91.5998 55.6 91.5998C53.9 91.5998 52.6 92.1998 51.7 93.3998C50.9 94.3998 50.5 95.8998 50.5 97.7998C50.5 99.6998 50.9 101.1 51.7 102.2C52.1 102.8 52.7 103.3 53.4 103.6C54.1 103.9 54.8 104.1 55.6 104.1C57.3 104.1 58.6 103.4 59.5 102.2Z" fill="white"/>
<path d="M74.1 91.5999C75.8 92.7999 76.6 94.8999 76.5 98.0999V104.8H75.4V98.0999C75.4 96.6999 75.3 95.4999 75 94.5999C74.7 93.6999 74.2 92.9999 73.4 92.4999C72.6 91.9999 71.6 91.6999 70.5 91.7999C69.4 91.8999 68.5 92.1999 67.8 92.8999C67.1 93.4999 66.6 94.3999 66.4 95.4999C66.3 95.9999 66.2 96.5999 66.2 97.1999V104.8H65.1V90.9999H66.1V93.1999C66.3 92.7999 66.6 92.3999 67 91.9999C67.9 91.1999 69 90.6999 70.4 90.6999C71.9 90.5999 73.1 90.8999 74.1 91.5999Z" fill="white"/>
<path d="M96.7 94.5999L95.6 94.8999C95.1 93.6999 94.4 92.8 93.4 92.3C92.7 91.9 91.9 91.6999 91 91.6999C90.1 91.6999 89.3 91.7999 88.6 92.1999C88.2 92.3999 87.9 92.6999 87.6 92.9999C87.3 93.2999 87.2 93.6999 87.2 94.0999C87.2 94.7999 87.4 95.2999 87.9 95.6999C88.3 96.0999 89 96.3999 89.9 96.5999C90.4 96.7999 91.4 96.9999 92.9 97.3999C94 97.6999 94.9 98.0999 95.5 98.6999C96.4 99.3999 96.8 100.3 96.8 101.3C96.8 101.8 96.7 102.4 96.4 102.9C96.1 103.4 95.7 103.9 95.2 104.2C94.3 104.8 93 105.1 91.4 105.1C89.4 105.1 87.9 104.5 86.9 103.4C86.3 102.7 85.8 101.6 85.4 100.2L86.5 99.8999C86.7 101 87.1 101.9 87.7 102.6C88.5 103.5 89.7 104 91.3 104C92.7 104 93.8 103.7 94.6 103.2C95.3 102.7 95.7 102 95.7 101.1C95.7 100.4 95.4 99.8999 94.9 99.3999C94.4 98.9999 93.6 98.7 92.5 98.3C92.1 98.2 91.3 97.8999 90 97.5999C88.7 97.1999 87.8 96.8999 87.3 96.3999C86.6 95.7999 86.2 94.9999 86.2 93.9999C86.2 93.3999 86.4 92.8 86.8 92.3C87.2 91.8 87.7 91.2999 88.3 91.0999C89.1 90.6999 90.1 90.4999 91.2 90.5999C92.3 90.5999 93.2 90.8 94.1 91.3C94.7 91.6 95.3 92.0999 95.9 92.6999C96.2 93.2999 96.5 93.9999 96.7 94.5999Z" fill="white"/>
<path d="M102.2 92.1V100.2C102.2 100.3 102.2 100.5 102.2 100.8C102.2 101.1 102.2 101.3 102.2 101.4C102.2 101.5 102.2 101.6 102.2 101.8C102.2 102 102.2 102.2 102.3 102.3C102.3 102.4 102.4 102.5 102.5 102.7C102.8 103.4 103.4 103.8 104.3 103.9C105.1 104 105.9 104 106.6 103.8V104.8C105.8 105 105 105 104.2 104.9C102.9 104.7 102.1 104.2 101.6 103.2C101.3 102.6 101.2 101.7 101.2 100.2V92.1H98V91H101.2V87.2H102.3V91H106.6V92.1H102.2Z" fill="white"/>
<path d="M119.1 91H120.2V104.7H119.2V102.5C119 102.9 118.7 103.3 118.3 103.7C117.4 104.5 116.3 105 114.9 105C113.6 105.1 112.4 104.8 111.4 104.1C109.7 102.9 108.9 100.8 109 97.6V91H110.1V97.7C110.1 99.1 110.2 100.3 110.5 101.2C110.8 102.1 111.3 102.8 112.1 103.3C112.9 103.8 113.9 104.1 115 104C116.1 103.9 117 103.6 117.7 102.9C118.4 102.3 118.9 101.4 119.1 100.3C119.2 99.8 119.3 99.2 119.3 98.6V91H119.1Z" fill="white"/>
<path d="M134.2 86.3999H135.3V104.7H134.3V101.9C134.1 102.3 133.9 102.5 133.8 102.7C132.7 104.3 131.1 105.1 129.1 105.1C127.1 105.1 125.5 104.4 124.3 102.9C123.3 101.6 122.8 99.8999 122.8 97.8999C122.8 95.8999 123.3 94.0999 124.3 92.8999C124.8 92.1999 125.5 91.6999 126.3 91.2999C127.1 90.8999 128 90.6999 128.9 90.6999C129.9 90.6999 130.8 90.8999 131.7 91.2999C132.6 91.6999 133.3 92.2999 133.8 92.9999C134 93.2999 134.1 93.4999 134.2 93.6999V86.3999V86.3999ZM133.1 102.2C133.9 101.1 134.3 99.6999 134.3 97.7999C134.3 95.9999 133.9 94.4999 133.1 93.3999C132.2 92.1999 130.9 91.5999 129.2 91.5999C127.5 91.5999 126.2 92.1999 125.3 93.3999C124.5 94.3999 124.1 95.8999 124.1 97.7999C124.1 99.6999 124.5 101.1 125.3 102.2C125.7 102.8 126.3 103.3 127 103.6C127.7 103.9 128.4 104.1 129.2 104.1C130.9 104.1 132.2 103.4 133.1 102.2Z" fill="white"/>
<path d="M139.1 86.7H140.2V88.3H139.1V86.7ZM139.1 91H140.2V104.7H139.1V91Z" fill="white"/>
<path d="M149.5 105.1C147.4 105.1 145.8 104.4 144.7 102.9C143.7 101.6 143.2 99.8999 143.2 97.7999C143.2 95.6999 143.7 93.9999 144.7 92.7999C145.8 91.2999 147.4 90.5999 149.5 90.5999C151.6 90.5999 153.2 91.2999 154.3 92.7999C155.3 94.0999 155.8 95.7999 155.8 97.7999C155.8 99.8999 155.3 101.6 154.3 102.9C153.2 104.4 151.6 105.1 149.5 105.1ZM153.5 102.2C154.3 101.2 154.7 99.6999 154.7 97.7999C154.7 95.8999 154.3 94.4999 153.5 93.3999C152.6 92.1999 151.3 91.5999 149.6 91.5999C147.9 91.5999 146.5 92.1999 145.7 93.3999C144.9 94.4999 144.5 95.8999 144.5 97.7999C144.5 99.6999 144.9 101.1 145.7 102.2C146.6 103.4 147.9 104 149.6 104C151.2 104.1 152.6 103.5 153.5 102.2Z" fill="white"/>
</g>
<defs>
<clipPath id="clip0_1711_12569">
<rect width="306.5" height="111.2" fill="white"/>
</clipPath>
</defs>
</svg>
