<svg width="128" height="128" viewBox="0 0 128 128" fill="none" xmlns="http://www.w3.org/2000/svg">
<rect width="128" height="128" fill="white"/>
<path d="M14 88.0208L20.0218 76.4522C21.1446 77.1229 22.418 77.5007 23.725 77.5508C24.7141 77.5825 25.679 77.2413 26.4283 76.595C27.1348 75.9715 27.6493 75.1598 27.9118 74.2549C28.1599 73.0373 28.2595 71.7941 28.2085 70.5525V38H41.395V68.4541C41.4833 71.3442 41.2622 74.2353 40.7356 77.0784C39.8385 80.9336 37.6473 84.3651 34.527 86.8013C31.3689 89.3449 27.4172 90.6981 23.3624 90.6245C20.0669 90.595 16.8374 89.6969 14 88.0208V88.0208Z" fill="black"/>
<path d="M50.8123 90.6245V38H63.9988V90.6245H50.8123Z" fill="black"/>
<path d="M70.3833 81.3741L78.1963 71.8709C83.2658 76.2654 88.2693 78.481 93.2069 78.5176C94.3916 78.5195 95.5734 78.4017 96.7343 78.166C97.8097 77.9441 98.8251 77.4946 99.7123 76.8477C100.118 76.5803 100.45 76.2165 100.681 75.7889C100.911 75.3613 101.031 74.8833 101.031 74.3977C101.037 73.9337 100.923 73.476 100.701 73.0684C100.44 72.6101 100.061 72.2306 99.6024 71.9697C99.1155 71.6785 98.613 71.4145 98.0969 71.1787C97.4067 70.8921 96.6936 70.6643 95.9651 70.4976C95.0311 70.2669 94.2619 70.0911 93.6355 69.9702L90.9213 69.4649L88.1301 68.9375C86.1961 68.542 84.4819 68.1245 82.9984 67.6741C81.4059 67.18 79.8582 66.5515 78.3721 65.7954C76.9307 65.1048 75.604 64.197 74.4381 63.1038C73.3358 62.0125 72.4617 60.7129 71.8668 59.2805C71.1752 57.6442 70.8309 55.8822 70.8558 54.106C70.8021 51.9177 71.2368 49.745 72.1283 47.7458C73.0198 45.7465 74.3457 43.971 76.0095 42.5483C79.4527 39.5161 84.1815 38 90.196 38C97.4926 38.0209 104.574 40.4761 110.316 44.9763L102.899 54.4026C101.051 52.9733 98.9791 51.8596 96.7673 51.1067C94.6133 50.3286 92.3433 49.92 90.0532 49.8982C88.5334 49.8675 87.021 50.117 85.5917 50.6343C85.057 50.7559 84.5779 51.0518 84.2298 51.4754C83.8817 51.899 83.6843 52.4263 83.6687 52.9744C83.666 53.3593 83.7646 53.7381 83.9544 54.073C84.234 54.4711 84.6128 54.7893 85.0533 54.9959C85.5163 55.2601 85.9973 55.4913 86.4928 55.688C87.2086 55.9435 87.9434 56.1419 88.6906 56.2813C89.6722 56.4863 90.4964 56.6511 91.163 56.7756L94.1959 57.292C95.6611 57.5337 96.9797 57.7754 98.1519 58.0171C99.4734 58.3176 100.779 58.6843 102.064 59.1157C103.353 59.5294 104.61 60.0399 105.822 60.6428C106.969 61.2403 108.052 61.9545 109.053 62.7742C110.084 63.5889 110.981 64.5601 111.712 65.6526C112.466 66.8187 113.036 68.0932 113.404 69.4319C113.824 70.9781 114.024 72.5759 113.998 74.178C114.025 77.2264 113.066 80.2018 111.261 82.6595C109.348 85.2494 106.775 87.2791 103.811 88.5371C100.527 89.9668 96.9757 90.6821 93.3937 90.6355C89.45 90.6066 85.5443 89.8622 81.8665 88.4383C77.6507 86.7817 73.7626 84.3898 70.3833 81.3741V81.3741Z" fill="black"/>
</svg>
