<svg width="169" height="36" viewBox="0 0 169 36" fill="none" xmlns="http://www.w3.org/2000/svg">
<path d="M0 12.6248L1.53789 9.70289C1.86744 9.86828 2.19699 9.97854 2.47162 9.97854C2.74624 9.97854 2.96594 9.92341 3.13071 9.75802C3.29549 9.59263 3.40534 9.37211 3.51519 9.15159C3.57011 8.9862 3.57011 8.65542 3.57011 8.21438V0H6.8656V7.66308C6.8656 8.65542 6.81067 9.37211 6.70082 9.81315C6.48112 10.8055 5.93188 11.6324 5.16293 12.2389C4.39398 12.8453 3.40534 13.1761 2.36177 13.1761C1.53789 13.2863 0.768947 13.0658 0 12.6248Z" fill="#1D1D1B"/>
<path d="M9.22736 0H18.7843V3.03215H12.5228V4.57579H17.2464V7.55282H12.5228V10.2542H18.7843V13.2863H9.22736V0Z" fill="#1D1D1B"/>
<path d="M33.0098 13.2863H31.1423L24.112 5.78866V13.2863H20.8165V0H22.6839L29.7143 7.49769V0H33.0098V13.2863V13.2863Z" fill="#1D1D1B"/>
<path d="M34.6027 10.9158L36.58 8.54516C37.8432 9.64776 39.1065 10.1991 40.3698 10.1991C40.6993 10.1991 40.9739 10.1439 41.2486 10.0888C41.5232 10.0337 41.7978 9.92341 42.0175 9.75802C42.2372 9.59263 42.3471 9.37211 42.3471 9.15159C42.3471 9.04133 42.2921 8.93107 42.2372 8.82081C42.1823 8.71055 42.0724 8.65542 41.9626 8.54516C41.8527 8.49003 41.688 8.37977 41.5781 8.32464C41.4683 8.26951 41.3035 8.21438 41.0289 8.15925C40.7542 8.10412 40.5895 8.04899 40.4247 8.04899C40.2599 7.99386 40.0402 7.99386 39.7656 7.93873C39.491 7.8836 39.2163 7.82847 39.0516 7.82847C38.5572 7.71821 38.1178 7.60795 37.7883 7.49769C37.4038 7.38743 37.0193 7.22204 36.6349 7.00152C36.2504 6.781 35.9209 6.56048 35.6462 6.33996C35.3716 6.06431 35.1519 5.78866 34.9871 5.40275C34.8224 5.01684 34.7125 4.57579 34.7125 4.07962C34.7125 2.92189 35.1519 1.92955 36.0307 1.15773C36.9095 0.38591 38.0629 0 39.6008 0C41.4133 0 43.116 0.606431 44.6539 1.76416L42.7865 4.13475C42.2921 3.74884 41.7978 3.47319 41.2486 3.3078C40.6444 3.08728 40.0951 2.97702 39.5459 2.97702C39.1065 2.97702 38.722 3.03215 38.4474 3.14241C38.1178 3.25267 37.9531 3.47319 37.9531 3.74884C37.9531 3.8591 37.9531 3.96936 38.008 4.02449C38.0629 4.07962 38.1178 4.18988 38.2826 4.24501C38.3925 4.30014 38.5572 4.35527 38.6671 4.4104C38.7769 4.46553 38.9417 4.52066 39.2163 4.57579C39.436 4.63093 39.6557 4.68605 39.8205 4.68605C39.9853 4.74119 40.2599 4.74118 40.5895 4.79631C40.9739 4.85145 41.3035 4.90658 41.5781 4.96171C41.8527 5.01684 42.1823 5.1271 42.5668 5.23736C42.9512 5.34762 43.2258 5.45788 43.5005 5.62327C43.7751 5.78866 44.0497 5.95405 44.3243 6.17457C44.599 6.39509 44.8187 6.61561 44.9834 6.89126C45.1482 7.16691 45.313 7.49769 45.4228 7.82847C45.5327 8.21438 45.5876 8.60029 45.5876 9.04133C45.5876 9.81315 45.3679 10.5298 44.9285 11.1914C44.4891 11.853 43.83 12.294 43.0611 12.6799C42.2921 13.0107 41.4133 13.2312 40.4247 13.2312C39.491 13.2312 38.5023 13.0658 37.5137 12.6799C36.4701 12.294 35.5364 11.7427 34.6027 10.9158Z" fill="#1D1D1B"/>
<path d="M47.1255 0H56.6824V3.03215H50.421V4.57579H55.1445V7.55282H50.421V10.2542H56.6824V13.2863H47.1255V0Z" fill="#1D1D1B"/>
<path d="M70.9079 13.2863H69.0405L62.065 5.78866V13.2863H58.7695V0H60.637L67.6673 7.49769V0H70.9628V13.2863H70.9079Z" fill="#1D1D1B"/>
<path d="M78.103 13.2863V0H81.3985V13.2863H78.103Z" fill="#1D1D1B"/>
<path d="M95.9536 13.2863H94.0862L87.1107 5.78866V13.2863H83.8152V0H85.6827L92.7131 7.49769V0H96.0085V13.2863H95.9536Z" fill="#1D1D1B"/>
<path d="M97.7112 0H109.41V3.03215H105.236V13.2312H101.94V3.03215H97.7661V0H97.7112Z" fill="#1D1D1B"/>
<path d="M111.168 0H120.725V3.03215H114.463V4.57579H119.187V7.55282H114.463V10.2542H120.725V13.2863H111.168V0Z" fill="#1D1D1B"/>
<path d="M126.052 13.2863H122.757V0H129.458C130.556 0 131.435 0.22052 132.094 0.661561C132.643 0.992341 133.083 1.48851 133.412 2.09494C133.742 2.70137 133.907 3.36293 133.907 4.13475C133.907 5.1271 133.632 5.95405 133.028 6.72587C132.643 7.16691 132.149 7.55282 131.49 7.82847L134.785 13.3415H130.941L128.03 8.26951H126.052V13.2863ZM126.052 5.1271H129.183C129.513 5.1271 129.787 5.07197 129.952 5.01684C130.391 4.85145 130.666 4.52067 130.666 4.07962C130.666 3.63858 130.446 3.3078 129.952 3.14241C129.787 3.08728 129.568 3.03215 129.183 3.03215H126.052V5.1271Z" fill="#1D1D1B"/>
<path d="M136.049 13.2863V0H139.344V13.2863H136.049Z" fill="#1D1D1B"/>
<path d="M150.549 12.7351C149.725 13.0659 148.791 13.2313 147.858 13.2313C146.924 13.2313 145.99 13.0659 145.166 12.7351C144.342 12.4044 143.628 11.9082 143.024 11.3569C142.42 10.8056 141.981 10.0889 141.651 9.26194C141.321 8.43499 141.157 7.55291 141.157 6.67083C141.157 5.78875 141.321 4.85154 141.651 4.07972C141.981 3.3079 142.475 2.53607 143.024 1.98477C143.573 1.43347 144.342 0.937302 145.166 0.606522C145.99 0.275742 146.924 0.110352 147.858 0.110352C148.791 0.110352 149.725 0.275742 150.549 0.606522C151.373 0.937302 152.087 1.43347 152.691 1.98477C153.295 2.53607 153.734 3.25277 154.064 4.07972C154.394 4.90667 154.558 5.78875 154.558 6.67083C154.558 7.55291 154.394 8.49012 154.064 9.26194C153.734 10.0338 153.24 10.8056 152.691 11.3569C152.142 11.9082 151.373 12.4044 150.549 12.7351ZM150.329 4.07972C149.725 3.41816 148.901 3.03224 147.858 3.03224C146.814 3.03224 145.99 3.36303 145.386 4.07972C144.782 4.79641 144.452 5.62336 144.452 6.6157C144.452 7.60804 144.782 8.49012 145.386 9.20681C145.99 9.86837 146.814 10.2543 147.858 10.2543C148.901 10.2543 149.725 9.9235 150.329 9.20681C150.933 8.54525 151.263 7.66317 151.263 6.6157C151.263 5.56823 150.933 4.74128 150.329 4.07972Z" fill="#1D1D1B"/>
<path d="M159.666 13.2863H156.371V0H163.072C164.17 0 165.049 0.22052 165.708 0.661561C166.257 0.992341 166.697 1.48851 167.026 2.09494C167.356 2.70137 167.521 3.36293 167.521 4.13475C167.521 5.1271 167.246 5.95405 166.642 6.72587C166.257 7.16691 165.763 7.55282 165.104 7.82847L168.399 13.3415H164.555L161.644 8.26951H159.666V13.2863V13.2863ZM159.666 5.1271H162.797C163.127 5.1271 163.401 5.07197 163.566 5.01684C164.005 4.85145 164.28 4.52067 164.28 4.07962C164.28 3.63858 164.06 3.3078 163.566 3.14241C163.401 3.08728 163.182 3.03215 162.797 3.03215H159.666V5.1271Z" fill="#1D1D1B"/>
<path d="M0.549255 33.6294L2.52655 31.2588C3.78982 32.3614 5.05309 32.9127 6.31636 32.9127C6.64591 32.9127 6.92053 32.8576 7.19515 32.8024C7.46978 32.7473 7.7444 32.637 7.9641 32.4716C8.1838 32.3063 8.29365 32.0857 8.29365 31.8652C8.29365 31.755 8.23872 31.6447 8.1838 31.5344C8.12887 31.4242 8.01903 31.369 7.90918 31.2588C7.79933 31.2037 7.63455 31.0934 7.5247 31.0383C7.41485 30.9831 7.25008 30.928 6.97545 30.8729C6.75576 30.8177 6.53606 30.7626 6.37128 30.7626C6.20651 30.7075 5.98681 30.7075 5.71218 30.6524C5.43756 30.5972 5.16294 30.5421 4.99816 30.5421C4.50384 30.4318 4.06444 30.3216 3.73489 30.2113C3.35042 30.1011 2.96595 29.9357 2.58147 29.7151C2.197 29.4946 1.86745 29.2741 1.59283 29.0536C1.3182 28.7779 1.0985 28.5023 0.933729 28.1164C0.768955 27.7305 0.659105 27.2894 0.659105 26.7932C0.659105 25.6355 1.0985 24.6432 1.9773 23.8714C2.8561 23.0995 4.00952 22.7136 5.54741 22.7136C7.35993 22.7136 9.0626 23.3201 10.6005 24.4778L8.73305 26.8484C8.29365 26.5176 7.79933 26.1868 7.19515 26.0214C6.59098 25.856 6.04173 25.6906 5.49249 25.6906C5.05309 25.6906 4.66861 25.7458 4.39399 25.856C4.06444 25.9663 3.89967 26.1868 3.89967 26.4625C3.89967 26.5727 3.89967 26.683 3.95459 26.7381C4.00952 26.8484 4.06444 26.9035 4.22922 26.9586C4.33907 27.0138 4.50384 27.0689 4.61369 27.124C4.72354 27.1792 4.88831 27.2343 5.16294 27.2894C5.38264 27.3445 5.60234 27.3997 5.76711 27.3997C5.93188 27.4548 6.20651 27.4548 6.53606 27.5099C6.92053 27.5651 7.25008 27.6202 7.5247 27.6753C7.79933 27.7305 8.12888 27.8407 8.51335 27.951C8.89782 28.0612 9.17245 28.1715 9.44707 28.3369C9.72169 28.5023 9.99632 28.6677 10.2709 28.8882C10.5456 29.1087 10.7653 29.3292 10.93 29.6049C11.0948 29.8805 11.2596 30.2113 11.3694 30.5421C11.4793 30.928 11.5342 31.3139 11.5342 31.755C11.5342 32.5268 11.3145 33.2435 10.8751 33.905C10.4357 34.5666 9.77662 35.0076 9.00767 35.3935C8.23872 35.7794 7.35993 35.9448 6.37128 35.9448C5.43756 35.9448 4.44891 35.7794 3.46027 35.3935C2.47162 35.0628 1.48298 34.4563 0.549255 33.6294Z" fill="#1D1D1B"/>
<path d="M21.915 35.4488C21.0911 35.7795 20.1574 35.9449 19.2237 35.9449C18.2899 35.9449 17.3562 35.7795 16.5323 35.4488C15.7085 35.118 14.9944 34.6218 14.3903 34.0705C13.7861 33.4641 13.3467 32.8025 13.0172 31.9756C12.6876 31.1486 12.5228 30.2665 12.5228 29.3845C12.5228 28.4472 12.6876 27.5652 13.0172 26.7933C13.3467 25.9664 13.841 25.2497 14.3903 24.6984C14.9944 24.092 15.7085 23.6509 16.5323 23.3201C17.3562 22.9894 18.2899 22.824 19.2237 22.824C20.1574 22.824 21.0911 22.9894 21.915 23.3201C22.7388 23.6509 23.4529 24.1471 24.057 24.6984C24.6612 25.2497 25.1006 25.9664 25.4302 26.7933C25.7597 27.6203 25.9245 28.5024 25.9245 29.3845C25.9245 30.3217 25.7597 31.2037 25.4302 31.9756C25.1006 32.8025 24.6063 33.5192 24.057 34.0705C23.4529 34.6769 22.7388 35.118 21.915 35.4488ZM21.6953 26.7933C21.0911 26.1318 20.2672 25.7459 19.2237 25.7459C18.1801 25.7459 17.3562 26.0766 16.752 26.7933C16.1479 27.4549 15.8183 28.337 15.8183 29.3845C15.8183 30.4319 16.1479 31.2589 16.752 31.9756C17.3562 32.6923 18.1801 33.023 19.2237 33.023C20.2672 33.023 21.0911 32.6923 21.6953 31.9756C22.2994 31.2589 22.629 30.4319 22.629 29.3845C22.629 28.337 22.2994 27.4549 21.6953 26.7933Z" fill="#1D1D1B"/>
<path d="M27.737 22.7136H31.0325V32.9127H37.239V36H27.737V22.7136Z" fill="#1D1D1B"/>
<path d="M47.1255 22.7136H50.421V28.9433C50.421 29.9908 50.366 30.7075 50.3111 31.1485C50.0365 32.5819 49.3774 33.7396 48.3887 34.6217C47.4001 35.5038 46.0819 35.9448 44.5989 35.9448C43.116 35.9448 41.8527 35.5038 40.8091 34.6217C39.7655 33.7396 39.1064 32.5819 38.8318 31.1485C38.722 30.7075 38.6671 29.9357 38.6671 28.9433V22.7136H41.9625V29.7703C41.9625 30.1562 42.0175 30.5421 42.1273 30.9831C42.2921 31.5896 42.5667 32.0306 42.9512 32.4165C43.3357 32.7473 43.8849 32.9678 44.4891 32.9678C45.1482 32.9678 45.6425 32.8024 46.027 32.4165C46.4114 32.0306 46.6861 31.5896 46.8508 30.9831C46.9607 30.5972 47.0156 30.2113 47.0156 29.7703V22.7136H47.1255Z" fill="#1D1D1B"/>
<path d="M52.0138 22.7136H63.7128V25.7458H59.5385V35.9448H56.243V25.8009H52.0687V22.7136H52.0138Z" fill="#1D1D1B"/>
<path d="M65.4154 36V22.7136H68.7109V36H65.4154V36Z" fill="#1D1D1B"/>
<path d="M79.9704 35.4488C79.1466 35.7795 78.2129 35.9449 77.2791 35.9449C76.3454 35.9449 75.4117 35.7795 74.5878 35.4488C73.7639 35.118 73.0499 34.6218 72.4457 34.0705C71.8416 33.4641 71.4022 32.8025 71.0726 31.9756C70.7431 31.1486 70.5783 30.2665 70.5783 29.3845C70.5783 28.4472 70.7431 27.5652 71.0726 26.7933C71.4022 25.9664 71.8965 25.2497 72.4457 24.6984C72.995 24.1471 73.7639 23.6509 74.5878 23.3201C75.4117 22.9894 76.3454 22.824 77.2791 22.824C78.2129 22.824 79.1466 22.9894 79.9704 23.3201C80.7943 23.6509 81.5083 24.1471 82.1125 24.6984C82.7167 25.2497 83.1561 25.9664 83.4856 26.7933C83.8152 27.6203 83.98 28.5024 83.98 29.3845C83.98 30.3217 83.8152 31.2037 83.4856 31.9756C83.1561 32.8025 82.6618 33.5192 82.1125 34.0705C81.5083 34.6769 80.7943 35.118 79.9704 35.4488ZM79.7507 26.7933C79.1466 26.1318 78.3227 25.7459 77.2791 25.7459C76.2356 25.7459 75.4117 26.0766 74.8075 26.7933C74.2033 27.4549 73.8738 28.337 73.8738 29.3845C73.8738 30.4319 74.2033 31.2589 74.8075 31.9756C75.4117 32.6371 76.2356 33.023 77.2791 33.023C78.3227 33.023 79.1466 32.6923 79.7507 31.9756C80.3549 31.314 80.6845 30.4319 80.6845 29.3845C80.6845 28.337 80.3549 27.4549 79.7507 26.7933Z" fill="#1D1D1B"/>
<path d="M97.9309 36H96.0635L89.088 28.5023V36H85.7925V22.7136H87.66L94.6904 30.2113V22.7136H97.9858V36H97.9309Z" fill="#1D1D1B"/>
<path d="M99.5237 33.6294L101.501 31.2588C102.764 32.3614 104.028 32.9127 105.291 32.9127C105.62 32.9127 105.895 32.8576 106.17 32.8024C106.444 32.7473 106.719 32.637 106.939 32.4716C107.158 32.3063 107.268 32.0857 107.268 31.8652C107.268 31.755 107.213 31.6447 107.158 31.5344C107.103 31.4242 106.993 31.369 106.884 31.2588C106.774 31.2037 106.609 31.0934 106.499 31.0383C106.389 30.9831 106.225 30.928 105.95 30.8729C105.675 30.8177 105.51 30.7626 105.346 30.7626C105.181 30.7075 104.961 30.7075 104.687 30.6524C104.412 30.5972 104.137 30.5421 103.973 30.5421C103.478 30.4318 103.039 30.3216 102.709 30.2113C102.325 30.1011 101.94 29.9357 101.556 29.7151C101.171 29.4946 100.842 29.2741 100.567 29.0536C100.293 28.7779 100.073 28.5023 99.9082 28.1164C99.7434 27.7305 99.6335 27.2894 99.6335 26.7932C99.6335 25.6355 100.073 24.6432 100.952 23.8714C101.831 23.0995 102.984 22.7136 104.522 22.7136C106.334 22.7136 108.037 23.3201 109.575 24.4778L107.707 26.8484C107.268 26.5176 106.774 26.1868 106.17 26.0214C105.565 25.856 105.016 25.6906 104.467 25.6906C104.028 25.6906 103.643 25.7458 103.368 25.856C103.039 25.9663 102.874 26.1868 102.874 26.4625C102.874 26.5727 102.874 26.683 102.929 26.7381C102.984 26.8484 103.039 26.9035 103.204 26.9586C103.313 27.0138 103.478 27.0689 103.588 27.124C103.698 27.1792 103.863 27.2343 104.137 27.2894C104.357 27.3445 104.577 27.3997 104.742 27.3997C104.906 27.4548 105.181 27.4548 105.51 27.5099C105.895 27.5651 106.225 27.6202 106.499 27.6753C106.774 27.7305 107.103 27.8407 107.488 27.951C107.872 28.0612 108.147 28.1715 108.421 28.3369C108.696 28.5023 108.971 28.6677 109.245 28.8882C109.52 29.1087 109.74 29.3292 109.904 29.6049C110.069 29.8805 110.234 30.2113 110.344 30.5421C110.454 30.928 110.509 31.3139 110.509 31.755C110.509 32.5268 110.289 33.2435 109.85 33.905C109.41 34.5666 108.751 35.0076 107.982 35.3935C107.213 35.7794 106.334 35.9448 105.346 35.9448C104.412 35.9448 103.423 35.7794 102.435 35.3935C101.391 35.0628 100.457 34.4563 99.5237 33.6294Z" fill="#1D1D1B"/>
</svg>
