<svg width="450" height="189" fill="none" xmlns="http://www.w3.org/2000/svg"><path fill-rule="evenodd" clip-rule="evenodd" d="M77.668 185.296v-33.024H.356V123.31L84.29 2.816h33.778V120.32h24.576v31.952h-24.576v33.024h-40.4Zm39.4-34.024h24.576V121.32h-24.576V3.816H84.812L1.356 123.624v27.648h77.312v33.024h38.4v-33.024Zm-38.4-29.952V60.178L36.399 121.32h42.269Zm-40.362-1h39.362V63.383L38.306 120.32Zm133.149 43.06-.007-.01c-11.77-16.616-17.592-39.889-17.592-69.698 0-30.312 5.819-53.514 17.604-69.458l.001-.002C183.446 8.06 200.484 0 222.44 0c22.122 0 39.165 8.056 50.981 24.215 11.784 15.944 17.603 39.059 17.603 69.201 0 29.978-5.822 53.337-17.592 69.954l-.003.004c-11.813 16.504-28.857 24.738-50.989 24.738-21.964 0-39.004-8.236-50.985-24.732Zm72.103-23.557.004-.006c4.841-9.683 7.318-25.105 7.318-46.401 0-21.303-2.479-36.454-7.309-45.614l-.003-.006-.003-.006c-2.326-4.568-5.245-7.939-8.736-10.172-3.487-2.23-7.604-3.362-12.389-3.362-4.785 0-8.925 1.132-12.458 3.365-3.534 2.235-6.516 5.607-8.926 10.174C196.393 56.96 194 72.031 194 93.16c0 21.467 2.477 36.973 7.317 46.655 2.415 4.744 5.382 8.244 8.875 10.559 3.489 2.313 7.559 3.482 12.248 3.482 4.778 0 8.89-1.171 12.375-3.482 3.491-2.313 6.414-5.81 8.743-10.551Zm-43.39-92.487c4.949-9.387 12.373-14.08 22.272-14.08s17.237 4.693 22.016 14.08c4.949 9.387 7.424 24.747 7.424 46.08s-2.475 36.949-7.424 46.848c-4.779 9.728-12.117 14.592-22.016 14.592-9.728 0-17.067-4.864-22.016-14.592-4.949-9.899-7.424-25.6-7.424-47.104 0-21.163 2.389-36.437 7.168-45.824Zm-27.904 115.456c-11.605-16.384-17.408-39.424-17.408-69.12 0-30.208 5.803-53.163 17.408-68.864C184.04 8.936 200.765 1 222.44 1c21.845 0 38.571 7.936 50.176 23.808 11.605 15.701 17.408 38.57 17.408 68.608 0 29.867-5.803 52.992-17.408 69.376-11.605 16.213-28.331 24.32-50.176 24.32-21.675 0-38.4-8.107-50.176-24.32Zm212.404 22.504v-33.024h-77.312V123.31L391.29 2.816h33.778V120.32h24.576v31.952h-24.576v33.024h-40.4Zm39.4-34.024h24.576V121.32h-24.576V3.816h-32.256l-83.456 119.808v27.648h77.312v33.024h38.4v-33.024Zm-38.4-29.952V60.178l-42.269 61.142h42.269Zm-40.362-1h39.362V63.383l-39.362 56.937Z" fill="#fff"/></svg>