<svg width="307" height="112" fill="none" xmlns="http://www.w3.org/2000/svg"><g clip-path="url(#a)" fill="#fff"><path d="m0 22.9 2.8-5.3c.6.3 1.2.5 1.7.5s.9-.1 1.2-.4c.3-.3.5-.7.7-1.1.1-.3.1-.9.1-1.7V0h6v13.9c0 1.8-.1 3.1-.3 3.9-.4 1.8-1.4 3.3-2.8 4.4-1.4 1.1-3.2 1.7-5.1 1.7-1.5.2-2.9-.2-4.3-1ZM16.8 0h17.4v5.5H22.8v2.8h8.6v5.4h-8.6v4.9h11.4v5.5H16.8V0Zm43.3 24.1h-3.4L43.9 10.5v13.6h-6V0h3.4l12.8 13.6V0h6v24.1Zm2.9-4.3 3.6-4.3c2.3 2 4.6 3 6.9 3 .6 0 1.1-.1 1.6-.2s1-.3 1.4-.6c.4-.3.6-.7.6-1.1 0-.2-.1-.4-.2-.6-.1-.2-.3-.3-.5-.5-.2-.1-.5-.3-.7-.4-.2-.1-.5-.2-1-.3-.5-.1-.8-.2-1.1-.2-.3-.1-.7-.1-1.2-.2s-1-.2-1.3-.2c-.9-.2-1.7-.4-2.3-.6-.7-.2-1.4-.5-2.1-.9-.7-.4-1.3-.8-1.8-1.2-.5-.5-.9-1-1.2-1.7-.3-.7-.5-1.5-.5-2.4 0-2.1.8-3.9 2.4-5.3C67.2.7 69.3 0 72.1 0c3.3 0 6.4 1.1 9.2 3.2l-3.4 4.3c-.9-.7-1.8-1.2-2.8-1.5-1.1-.4-2.1-.6-3.1-.6-.8 0-1.5.1-2 .3-.6.2-.9.6-.9 1.1 0 .2 0 .4.1.5.1.1.2.3.5.4.2.1.5.2.7.3.2.1.5.2 1 .3.4.1.8.2 1.1.2.3.1.8.1 1.4.2.7.1 1.3.2 1.8.3.5.1 1.1.3 1.8.5s1.2.4 1.7.7c.5.3 1 .6 1.5 1s.9.8 1.2 1.3c.3.5.6 1.1.8 1.7.2.7.3 1.4.3 2.2 0 1.4-.4 2.7-1.2 3.9-.8 1.2-2 2-3.4 2.7-1.4.6-3 1-4.8 1-1.7 0-3.5-.3-5.3-1-1.9-.7-3.6-1.7-5.3-3.2ZM85.8 0h17.4v5.5H91.8v2.8h8.6v5.4h-8.6v4.9h11.4v5.5H85.8V0Zm43.3 24.1h-3.4L113 10.5v13.6h-6V0h3.4l12.8 13.6V0h6v24.1h-.1Zm13.1 0V0h6v24.1h-6Zm32.5 0h-3.4l-12.7-13.6v13.6h-6V0h3.4l12.8 13.6V0h6v24.1h-.1ZM177.9 0h21.3v5.5h-7.6V24h-6V5.5H178V0h-.1Zm24.5 0h17.4v5.5h-11.4v2.8h8.6v5.4h-8.6v4.9h11.4v5.5h-17.4V0Zm27.1 24.1h-6V0h12.2c2 0 3.6.4 4.8 1.2 1 .6 1.8 1.5 2.4 2.6.6 1.1.9 2.3.9 3.7 0 1.8-.5 3.3-1.6 4.7-.7.8-1.6 1.5-2.8 2l6 10h-7l-5.3-9.2h-3.6v9.1Zm0-14.8h5.7c.6 0 1.1-.1 1.4-.2.8-.3 1.3-.9 1.3-1.7 0-.8-.4-1.4-1.3-1.7-.3-.1-.7-.2-1.4-.2h-5.7v3.8Zm18.2 14.8V0h6v24.1h-6Zm26.4-1c-1.5.6-3.2.9-4.9.9-1.7 0-3.4-.3-4.9-.9-1.5-.6-2.8-1.5-3.9-2.5s-1.9-2.3-2.5-3.8c-.6-1.5-.9-3.1-.9-4.7s.3-3.3.9-4.7c.6-1.4 1.5-2.8 2.5-3.8s2.4-1.9 3.9-2.5c1.5-.6 3.2-.9 4.9-.9 1.7 0 3.4.3 4.9.9 1.5.6 2.8 1.5 3.9 2.5s1.9 2.3 2.5 3.8c.6 1.5.9 3.1.9 4.7s-.3 3.3-.9 4.7c-.6 1.4-1.5 2.8-2.5 3.8s-2.4 1.9-3.9 2.5Zm-.4-15.7c-1.1-1.2-2.6-1.9-4.5-1.9s-3.4.6-4.5 1.9c-1.1 1.3-1.7 2.8-1.7 4.6 0 1.8.6 3.4 1.7 4.7 1.1 1.2 2.6 1.9 4.5 1.9s3.4-.6 4.5-1.9c1.1-1.2 1.7-2.8 1.7-4.7 0-1.9-.6-3.4-1.7-4.6Zm17 16.7h-6V0h12.2c2 0 3.6.4 4.8 1.2 1 .6 1.8 1.5 2.4 2.6.6 1.1.9 2.3.9 3.7 0 1.8-.5 3.3-1.6 4.7-.7.8-1.6 1.5-2.8 2l6 10h-7l-5.3-9.2h-3.6v9.1Zm0-14.8h5.7c.6 0 1.1-.1 1.4-.2.8-.3 1.3-.9 1.3-1.7 0-.8-.4-1.4-1.3-1.7-.3-.1-.7-.2-1.4-.2h-5.7v3.8ZM1 61l3.6-4.3c2.3 2 4.6 3 6.9 3 .6 0 1.1-.1 1.6-.2s1-.3 1.4-.6c.4-.3.6-.7.6-1.1 0-.2-.1-.4-.2-.6-.1-.2-.3-.3-.5-.5-.2-.1-.5-.3-.7-.4-.2-.1-.5-.2-1-.3-.4-.1-.8-.2-1.1-.2-.3-.1-.7-.1-1.2-.2s-1-.2-1.3-.2c-.9-.2-1.7-.4-2.3-.6-.7-.2-1.4-.5-2.1-.9-.7-.4-1.3-.8-1.8-1.2-.5-.5-.9-1-1.2-1.7-.3-.7-.5-1.5-.5-2.4 0-2.1.8-3.9 2.4-5.3 1.6-1.4 3.7-2.1 6.5-2.1 3.3 0 6.4 1.1 9.2 3.2l-3.4 4.3c-.8-.6-1.7-1.2-2.8-1.5-1.1-.3-2.1-.6-3.1-.6-.8 0-1.5.1-2 .3-.6.2-.9.6-.9 1.1 0 .2 0 .4.1.5.1.2.2.3.5.4.2.1.5.2.7.3.2.1.5.2 1 .3.4.1.8.2 1.1.2.3.1.8.1 1.4.2.7.1 1.3.2 1.8.3.5.1 1.1.3 1.8.5s1.2.4 1.7.7c.5.3 1 .6 1.5 1s.9.8 1.2 1.3c.3.5.6 1.1.8 1.7.2.7.3 1.4.3 2.2 0 1.4-.4 2.7-1.2 3.9-.8 1.2-2 2-3.4 2.7-1.4.7-3 1-4.8 1-1.7 0-3.5-.3-5.3-1-1.8-.6-3.6-1.7-5.3-3.2Zm38.9 3.3c-1.5.6-3.2.9-4.9.9-1.7 0-3.4-.3-4.9-.9-1.5-.6-2.8-1.5-3.9-2.5-1.1-1.1-1.9-2.3-2.5-3.8-.6-1.5-.9-3.1-.9-4.7 0-1.7.3-3.3.9-4.7.6-1.5 1.5-2.8 2.5-3.8 1.1-1.1 2.4-1.9 3.9-2.5 1.5-.6 3.2-.9 4.9-.9 1.7 0 3.4.3 4.9.9 1.5.6 2.8 1.5 3.9 2.5s1.9 2.3 2.5 3.8c.6 1.5.9 3.1.9 4.7 0 1.7-.3 3.3-.9 4.7-.6 1.5-1.5 2.8-2.5 3.8-1.1 1.1-2.4 1.9-3.9 2.5Zm-.4-15.7c-1.1-1.2-2.6-1.9-4.5-1.9s-3.4.6-4.5 1.9c-1.1 1.2-1.7 2.8-1.7 4.7 0 1.9.6 3.4 1.7 4.7 1.1 1.3 2.6 1.9 4.5 1.9s3.4-.6 4.5-1.9c1.1-1.3 1.7-2.8 1.7-4.7 0-1.9-.6-3.5-1.7-4.7Zm11-7.4h6v18.5h11.3v5.6H50.5V41.2Zm35.3 0h6v11.3c0 1.9-.1 3.2-.2 4-.5 2.6-1.7 4.7-3.5 6.3-1.8 1.6-4.2 2.4-6.9 2.4s-5-.8-6.9-2.4c-1.9-1.6-3.1-3.7-3.6-6.3-.2-.8-.3-2.2-.3-4V41.2h6V54c0 .7.1 1.4.3 2.2.3 1.1.8 1.9 1.5 2.6.7.6 1.7 1 2.8 1 1.2 0 2.1-.3 2.8-1 .7-.7 1.2-1.5 1.5-2.6.2-.7.3-1.4.3-2.2V41.2h.2Zm8.9 0H116v5.5h-7.6v18.5h-6V46.8h-7.6v-5.6h-.1Zm24.4 24.1V41.2h6v24.1h-6Zm26.5-1c-1.5.6-3.2.9-4.9.9-1.7 0-3.4-.3-4.9-.9-1.5-.6-2.8-1.5-3.9-2.5-1.1-1.1-1.9-2.3-2.5-3.8-.6-1.5-.9-3.1-.9-4.7 0-1.7.3-3.3.9-4.7.6-1.5 1.5-2.8 2.5-3.8s2.4-1.9 3.9-2.5c1.5-.6 3.2-.9 4.9-.9 1.7 0 3.4.3 4.9.9 1.5.6 2.8 1.5 3.9 2.5s1.9 2.3 2.5 3.8c.6 1.5.9 3.1.9 4.7 0 1.7-.3 3.3-.9 4.7-.6 1.5-1.5 2.8-2.5 3.8-1.1 1.1-2.4 1.9-3.9 2.5Zm-.4-15.7c-1.1-1.2-2.6-1.9-4.5-1.9s-3.4.6-4.5 1.9c-1.1 1.2-1.7 2.8-1.7 4.7 0 1.9.6 3.4 1.7 4.7 1.1 1.2 2.6 1.9 4.5 1.9s3.4-.6 4.5-1.9c1.1-1.2 1.7-2.8 1.7-4.7 0-1.9-.6-3.5-1.7-4.7Zm33.1 16.7h-3.4l-12.7-13.6v13.6h-6V41.2h3.4l12.8 13.6V41.2h6v24.1h-.1Zm2.9-4.3 3.6-4.3c2.3 2 4.6 3 6.9 3 .6 0 1.1-.1 1.6-.2s1-.3 1.4-.6c.4-.3.6-.7.6-1.1 0-.2-.1-.4-.2-.6-.1-.2-.3-.3-.5-.5-.2-.1-.5-.3-.7-.4-.2-.1-.5-.2-1-.3-.5-.1-.8-.2-1.1-.2-.3-.1-.7-.1-1.2-.2s-1-.2-1.3-.2c-.9-.2-1.7-.4-2.3-.6-.7-.2-1.4-.5-2.1-.9-.7-.4-1.3-.8-1.8-1.2-.5-.5-.9-1-1.2-1.7-.3-.7-.5-1.5-.5-2.4 0-2.1.8-3.9 2.4-5.3 1.6-1.4 3.7-2.1 6.5-2.1 3.3 0 6.4 1.1 9.2 3.2l-3.4 4.3c-.8-.6-1.7-1.2-2.8-1.5-1.1-.3-2.1-.6-3.1-.6-.8 0-1.5.1-2 .3-.6.2-.9.6-.9 1.1 0 .2 0 .4.1.5.1.2.2.3.5.4.2.1.5.2.7.3.2.1.5.2 1 .3.4.1.8.2 1.1.2.3.1.8.1 1.4.2.7.1 1.3.2 1.8.3.5.1 1.1.3 1.8.5s1.2.4 1.7.7c.5.3 1 .6 1.5 1s.9.8 1.2 1.3c.3.5.6 1.1.8 1.7.2.7.3 1.4.3 2.2 0 1.4-.4 2.7-1.2 3.9-.8 1.2-2 2-3.4 2.7-1.4.7-3 1-4.8 1-1.7 0-3.5-.3-5.3-1-1.9-.6-3.6-1.7-5.3-3.2ZM12.3 86.4h1.1v18.3h-1v-2.8c-.2.4-.4.6-.5.8-1.1 1.6-2.7 2.4-4.7 2.4s-3.6-.7-4.8-2.2c-1-1.3-1.5-3-1.5-5s.5-3.8 1.5-5c.5-.7 1.2-1.2 2-1.6.8-.4 1.7-.6 2.6-.6 1 0 1.9.2 2.8.6.9.4 1.6 1 2.1 1.7.2.3.3.5.4.7v-7.3Zm-1.2 15.8c.8-1.1 1.2-2.5 1.2-4.4 0-1.8-.4-3.3-1.2-4.4-.9-1.2-2.2-1.8-3.9-1.8-1.7 0-3 .6-3.9 1.8-.8 1-1.2 2.5-1.2 4.4 0 1.9.4 3.3 1.2 4.4.4.6 1 1.1 1.7 1.4.7.3 1.4.5 2.2.5 1.7 0 3-.7 3.9-1.9Zm11.3 1.9c2.3 0 4-1 5-3.1l.9.5c-1.2 2.4-3.1 3.7-5.9 3.7-2.1 0-3.7-.7-4.8-2.2-1-1.3-1.5-3-1.5-5 0-2.1.5-3.8 1.5-5.1 1.2-1.5 2.8-2.2 4.8-2.2 2.1 0 3.7.7 4.8 2.2 1 1.3 1.5 3.1 1.5 5.4H17.3c.1 1.7.5 3.1 1.2 4.1.9 1.1 2.2 1.7 3.9 1.7Zm-3.9-10.6c-.7.9-1.1 2.1-1.2 3.6h10.2c-.1-1.5-.5-2.7-1.2-3.6-.4-.6-1-1-1.7-1.4-.7-.3-1.4-.5-2.2-.4-.8 0-1.5.1-2.2.4-.7.3-1.3.8-1.7 1.4Zm23.7 1.1-1.1.3c-.5-1.2-1.2-2.1-2.2-2.6-.7-.4-1.5-.6-2.4-.6-.9 0-1.7.1-2.4.5-.4.2-.7.5-1 .8-.3.3-.4.7-.4 1.1 0 .7.2 1.2.7 1.6.4.4 1.1.7 2 .9.5.2 1.5.4 3 .8 1.1.3 2 .7 2.6 1.3.9.7 1.3 1.6 1.3 2.6 0 .5-.1 1.1-.4 1.6-.3.5-.7 1-1.2 1.3-.9.6-2.2.9-3.8.9-2 0-3.5-.6-4.5-1.7-.6-.7-1.1-1.8-1.5-3.2l1.1-.3c.2 1.1.6 2 1.2 2.7.8.9 2 1.4 3.6 1.4 1.4 0 2.5-.3 3.3-.8.7-.5 1.1-1.2 1.1-2.1 0-.7-.3-1.2-.8-1.7-.5-.4-1.3-.7-2.4-1.1-.4-.1-1.2-.4-2.5-.7-1.3-.4-2.2-.7-2.7-1.2-.7-.6-1.1-1.4-1.1-2.4 0-.6.2-1.2.6-1.7.4-.5.9-1 1.5-1.2.8-.4 1.8-.6 2.9-.5 1.1 0 2 .2 2.9.7.6.3 1.2.8 1.8 1.4.3.6.6 1.3.8 1.9Zm3-7.9h1.1v1.6h-1.1v-1.6Zm0 4.3h1.1v13.7h-1.1V91Zm15.5 0h1v13c0 1.6-.1 2.8-.4 3.6-.2.8-.7 1.5-1.4 2.2-1.2 1-2.7 1.5-4.6 1.5-2.1 0-3.8-.8-4.9-2.3-.2-.2-.3-.5-.5-.8l1-.5c.1.2.2.4.4.6.9 1.2 2.3 1.8 4 1.8 1.6 0 2.9-.4 3.8-1.2.6-.5 1-1.1 1.2-1.8.2-.7.3-1.7.3-3.1v-1.8l-.4.6c-1.1 1.6-2.7 2.4-4.7 2.4s-3.6-.7-4.8-2.2c-1-1.3-1.5-3-1.5-5s.5-3.8 1.5-5c.5-.7 1.2-1.2 2-1.6.8-.4 1.7-.6 2.6-.6 1 0 1.9.2 2.8.6.9.4 1.6 1 2.1 1.7.2.2.3.5.5.8V91Zm-1.2 11.2c.8-1.1 1.2-2.5 1.2-4.4 0-1.8-.4-3.3-1.2-4.4-.9-1.2-2.2-1.8-3.9-1.8-1.7 0-3 .6-3.9 1.8-.8 1-1.2 2.5-1.2 4.4 0 1.9.4 3.3 1.2 4.4.4.6 1 1.1 1.7 1.4.7.3 1.4.5 2.2.5 1.7 0 3-.7 3.9-1.9Zm14.6-10.6c1.7 1.2 2.5 3.3 2.4 6.5v6.7h-1.1v-6.7c0-1.4-.1-2.6-.4-3.5-.3-.9-.8-1.6-1.6-2.1s-1.8-.8-2.9-.7c-1.1.1-2 .4-2.7 1.1-.7.6-1.2 1.5-1.4 2.6-.1.5-.2 1.1-.2 1.7v7.6h-1.1V91h1v2.2c.2-.4.5-.8.9-1.2.9-.8 2-1.3 3.4-1.3 1.5-.1 2.7.2 3.7.9Zm22.6 3-1.1.3c-.5-1.2-1.2-2.1-2.2-2.6-.7-.4-1.5-.6-2.4-.6-.9 0-1.7.1-2.4.5-.4.2-.7.5-1 .8-.3.3-.4.7-.4 1.1 0 .7.2 1.2.7 1.6.4.4 1.1.7 2 .9.5.2 1.5.4 3 .8 1.1.3 2 .7 2.6 1.3.9.7 1.3 1.6 1.3 2.6 0 .5-.1 1.1-.4 1.6-.3.5-.7 1-1.2 1.3-.9.6-2.2.9-3.8.9-2 0-3.5-.6-4.5-1.7-.6-.7-1.1-1.8-1.5-3.2l1.1-.3c.2 1.1.6 2 1.2 2.7.8.9 2 1.4 3.6 1.4 1.4 0 2.5-.3 3.3-.8.7-.5 1.1-1.2 1.1-2.1 0-.7-.3-1.2-.8-1.7-.5-.4-1.3-.7-2.4-1.1-.4-.1-1.2-.4-2.5-.7-1.3-.4-2.2-.7-2.7-1.2-.7-.6-1.1-1.4-1.1-2.4 0-.6.2-1.2.6-1.7.4-.5.9-1 1.5-1.2.8-.4 1.8-.6 2.9-.5 1.1 0 2 .2 2.9.7.6.3 1.2.8 1.8 1.4.3.6.6 1.3.8 1.9Zm5.5-2.5v9.7c0 .2 0 .4.1.5 0 .1.1.2.2.4.3.7.9 1.1 1.8 1.2.8.1 1.6.1 2.3-.1v1c-.8.2-1.6.2-2.4.1-1.3-.2-2.1-.7-2.6-1.7-.3-.6-.4-1.5-.4-3v-8.1H98V91h3.2v-3.8h1.1V91h4.3v1.1h-4.4Zm16.9-1.1h1.1v13.7h-1v-2.2c-.2.4-.5.8-.9 1.2-.9.8-2 1.3-3.4 1.3-1.3.1-2.5-.2-3.5-.9-1.7-1.2-2.5-3.3-2.4-6.5V91h1.1v6.7c0 1.4.1 2.6.4 3.5.3.9.8 1.6 1.6 2.1s1.8.8 2.9.7c1.1-.1 2-.4 2.7-1.1.7-.6 1.2-1.5 1.4-2.6.1-.5.2-1.1.2-1.7V91h-.2Zm15.1-4.6h1.1v18.3h-1v-2.8c-.2.4-.4.6-.5.8-1.1 1.6-2.7 2.4-4.7 2.4s-3.6-.7-4.8-2.2c-1-1.3-1.5-3-1.5-5s.5-3.8 1.5-5c.5-.7 1.2-1.2 2-1.6.8-.4 1.7-.6 2.6-.6 1 0 1.9.2 2.8.6.9.4 1.6 1 2.1 1.7.2.3.3.5.4.7v-7.3Zm-1.1 15.8c.8-1.1 1.2-2.5 1.2-4.4 0-1.8-.4-3.3-1.2-4.4-.9-1.2-2.2-1.8-3.9-1.8-1.7 0-3 .6-3.9 1.8-.8 1-1.2 2.5-1.2 4.4 0 1.9.4 3.3 1.2 4.4.4.6 1 1.1 1.7 1.4.7.3 1.4.5 2.2.5 1.7 0 3-.7 3.9-1.9Zm6-15.5h1.1v1.6h-1.1v-1.6Zm0 4.3h1.1v13.7h-1.1V91Zm10.4 14.1c-2.1 0-3.7-.7-4.8-2.2-1-1.3-1.5-3-1.5-5.1 0-2.1.5-3.8 1.5-5 1.1-1.5 2.7-2.2 4.8-2.2 2.1 0 3.7.7 4.8 2.2 1 1.3 1.5 3 1.5 5 0 2.1-.5 3.8-1.5 5.1-1.1 1.5-2.7 2.2-4.8 2.2Zm4-2.9c.8-1 1.2-2.5 1.2-4.4 0-1.9-.4-3.3-1.2-4.4-.9-1.2-2.2-1.8-3.9-1.8-1.7 0-3.1.6-3.9 1.8-.8 1.1-1.2 2.5-1.2 4.4 0 1.9.4 3.3 1.2 4.4.9 1.2 2.2 1.8 3.9 1.8 1.6.1 3-.5 3.9-1.8Z"/></g><defs><clipPath id="a"><path fill="#fff" d="M0 0h306.5v111.2H0z"/></clipPath></defs></svg>