<svg width="128" height="128" fill="none" xmlns="http://www.w3.org/2000/svg"><path fill="#fff" d="M0 0h128v128H0z"/><path d="m14 88.02 6.022-11.568a7.804 7.804 0 0 0 3.703 1.099c.99.031 1.954-.31 2.703-.956a4.967 4.967 0 0 0 1.484-2.34c.248-1.218.348-2.46.297-3.703V38h13.186v30.454a40.554 40.554 0 0 1-.66 8.624 17.314 17.314 0 0 1-6.208 9.723 17.298 17.298 0 0 1-11.165 3.823A18.738 18.738 0 0 1 14 88.022Zm36.812 2.604V38H64v52.624H50.812Zm19.571-9.25 7.813-9.503c5.07 4.394 10.073 6.61 15.01 6.647a17.586 17.586 0 0 0 3.528-.352 7.693 7.693 0 0 0 2.978-1.318 2.94 2.94 0 0 0 1.319-2.45 2.706 2.706 0 0 0-.33-1.33 2.933 2.933 0 0 0-1.099-1.098 15.509 15.509 0 0 0-1.505-.791 13.287 13.287 0 0 0-2.132-.681 48.054 48.054 0 0 0-2.33-.528l-2.714-.505-2.79-.528c-1.935-.395-3.65-.813-5.133-1.263a29.442 29.442 0 0 1-4.626-1.879 15.616 15.616 0 0 1-3.934-2.691 11.689 11.689 0 0 1-2.571-3.823 12.83 12.83 0 0 1-1.011-5.175 14.73 14.73 0 0 1 5.154-11.558C79.453 39.516 84.18 38 90.196 38a32.77 32.77 0 0 1 20.12 6.976l-7.417 9.427a21.177 21.177 0 0 0-6.132-3.296 20.332 20.332 0 0 0-6.714-1.209c-1.52-.03-3.032.219-4.461.736a2.472 2.472 0 0 0-1.923 2.34c-.003.385.096.764.285 1.099.28.398.659.716 1.1.923.462.264.943.495 1.439.692.716.255 1.45.454 2.198.593.981.205 1.805.37 2.472.495l3.033.516a101.8 101.8 0 0 1 3.956.725c1.321.3 2.627.667 3.912 1.099a26.89 26.89 0 0 1 3.758 1.527 18.834 18.834 0 0 1 3.231 2.131 12.595 12.595 0 0 1 2.659 2.879 13.596 13.596 0 0 1 1.692 3.779c.42 1.546.62 3.144.594 4.746a14.115 14.115 0 0 1-2.737 8.481 18.01 18.01 0 0 1-7.45 5.878 25.275 25.275 0 0 1-10.417 2.098 32.589 32.589 0 0 1-11.528-2.197 38.265 38.265 0 0 1-11.483-7.064Z" fill="#000"/></svg>