<svg width="169" height="36" fill="none" xmlns="http://www.w3.org/2000/svg"><path d="m0 12.625 1.538-2.922c.33.165.659.276.934.276.274 0 .494-.056.659-.221.164-.165.274-.386.384-.606.055-.166.055-.497.055-.938V0h3.296v7.663c0 .992-.055 1.71-.165 2.15a4.227 4.227 0 0 1-1.538 2.426c-.769.606-1.758.937-2.801.937-.824.11-1.593-.11-2.362-.551ZM9.227 0h9.557v3.032h-6.261v1.544h4.723v2.977h-4.723v2.701h6.261v3.032H9.227V0ZM33.01 13.286h-1.868l-7.03-7.497v7.497h-3.295V0h1.867l7.03 7.498V0h3.296v13.286Zm1.593-2.37 1.977-2.37c1.263 1.102 2.526 1.653 3.79 1.653.33 0 .604-.055.879-.11.274-.055.549-.166.768-.331.22-.165.33-.386.33-.606 0-.11-.055-.22-.11-.331-.055-.11-.165-.166-.274-.276-.11-.055-.275-.165-.385-.22a2.219 2.219 0 0 0-.55-.166c-.274-.055-.438-.11-.603-.11-.165-.055-.385-.055-.66-.11-.274-.055-.549-.11-.713-.11-.495-.11-.934-.221-1.264-.331a5.202 5.202 0 0 1-1.153-.496 7.711 7.711 0 0 1-.989-.662c-.274-.276-.494-.551-.659-.937a3.343 3.343 0 0 1-.275-1.323c0-1.158.44-2.15 1.319-2.922C36.91.386 38.063 0 39.6 0c1.812 0 3.515.606 5.053 1.764l-1.868 2.37c-.494-.385-.988-.66-1.537-.826-.605-.22-1.154-.331-1.703-.331-.44 0-.824.055-1.099.165-.33.11-.494.331-.494.607 0 .11 0 .22.055.275.055.056.11.166.275.221.11.055.274.11.384.165.11.056.275.11.55.166.219.055.439.11.604.11.164.055.439.055.769.11.384.055.713.11.988.166.275.055.604.165.989.275.384.11.659.22.934.386.274.166.549.331.823.552.275.22.495.44.66.716.164.276.329.607.439.937.11.386.165.772.165 1.213a3.81 3.81 0 0 1-.66 2.15c-.439.662-1.098 1.103-1.867 1.489a6.616 6.616 0 0 1-2.636.551 7.992 7.992 0 0 1-2.911-.551c-1.044-.386-1.978-.937-2.911-1.764ZM47.126 0h9.556v3.032h-6.261v1.544h4.724v2.977H50.42v2.701h6.261v3.032h-9.556V0Zm23.782 13.286H69.04L62.065 5.79v7.497H58.77V0h1.867l7.03 7.498V0h3.296v13.286h-.055Zm7.195 0V0h3.296v13.286h-3.296Zm17.851 0h-1.868L87.111 5.79v7.497h-3.296V0h1.868l7.03 7.498V0h3.296v13.286h-.055ZM97.711 0h11.699v3.032h-4.174v10.2h-3.296v-10.2h-4.174V0h-.055Zm13.457 0h9.557v3.032h-6.262v1.544h4.724v2.977h-4.724v2.701h6.262v3.032h-9.557V0Zm14.884 13.286h-3.295V0h6.701c1.098 0 1.977.22 2.636.662.549.33.989.827 1.318 1.433.33.606.495 1.268.495 2.04 0 .992-.275 1.819-.879 2.59a4.105 4.105 0 0 1-1.538 1.103l3.295 5.513h-3.844L128.03 8.27h-1.978v5.016Zm0-8.159h3.131c.33 0 .604-.055.769-.11.439-.166.714-.496.714-.937 0-.441-.22-.772-.714-.938a2.266 2.266 0 0 0-.769-.11h-3.131v2.095Zm9.997 8.159V0h3.295v13.286h-3.295Zm14.5-.551a7.296 7.296 0 0 1-2.691.496 7.298 7.298 0 0 1-2.692-.496c-.824-.33-1.538-.827-2.142-1.378-.604-.551-1.043-1.268-1.373-2.095a6.997 6.997 0 0 1-.494-2.591c0-.882.164-1.82.494-2.591.33-.772.824-1.544 1.373-2.095.549-.552 1.318-1.048 2.142-1.378a7.298 7.298 0 0 1 2.692-.497c.933 0 1.867.166 2.691.497.824.33 1.538.826 2.142 1.378.604.551 1.043 1.268 1.373 2.095.33.827.494 1.709.494 2.59 0 .883-.164 1.82-.494 2.592-.33.772-.824 1.544-1.373 2.095-.549.551-1.318 1.047-2.142 1.378Zm-.22-8.655c-.604-.662-1.428-1.048-2.471-1.048-1.044 0-1.868.331-2.472 1.048-.604.716-.934 1.543-.934 2.536 0 .992.33 1.874.934 2.59.604.662 1.428 1.048 2.472 1.048 1.043 0 1.867-.33 2.471-1.047.604-.662.934-1.544.934-2.591 0-1.048-.33-1.875-.934-2.536Zm9.337 9.206h-3.295V0h6.701c1.098 0 1.977.22 2.636.662.549.33.989.827 1.318 1.433.33.606.495 1.268.495 2.04 0 .992-.275 1.819-.879 2.59a4.105 4.105 0 0 1-1.538 1.103l3.295 5.513h-3.844l-2.911-5.071h-1.978v5.016Zm0-8.159h3.131c.33 0 .604-.055.769-.11.439-.166.714-.496.714-.937 0-.441-.22-.772-.714-.938a2.266 2.266 0 0 0-.769-.11h-3.131v2.095ZM.55 33.63l1.977-2.371c1.263 1.102 2.526 1.654 3.79 1.654.329 0 .604-.055.878-.11.275-.056.55-.166.77-.331.219-.166.329-.386.329-.607 0-.11-.055-.22-.11-.33-.055-.11-.165-.166-.275-.276-.11-.055-.274-.166-.384-.22a2.215 2.215 0 0 0-.55-.166c-.22-.055-.439-.11-.604-.11-.164-.056-.384-.056-.659-.11-.274-.056-.55-.11-.714-.11a13.446 13.446 0 0 1-1.263-.332 5.198 5.198 0 0 1-1.154-.496 7.707 7.707 0 0 1-.988-.661c-.275-.276-.494-.552-.66-.938a3.342 3.342 0 0 1-.274-1.323c0-1.157.44-2.15 1.318-2.922.88-.771 2.033-1.157 3.57-1.157 1.813 0 3.516.606 5.054 1.764l-1.868 2.37c-.44-.33-.934-.661-1.538-.827-.604-.165-1.153-.33-1.703-.33-.439 0-.823.055-1.098.165-.33.11-.494.33-.494.606 0 .11 0 .221.055.276.055.11.11.166.274.22.11.056.275.11.385.166.11.055.274.11.549.165.22.055.44.11.604.11.165.056.44.056.77.11.384.056.713.111.988.166.274.055.604.166.988.276.385.11.66.22.934.386.275.165.55.33.824.551.275.22.494.441.659.717.165.276.33.606.44.937.11.386.164.772.164 1.213a3.81 3.81 0 0 1-.659 2.15c-.44.662-1.098 1.103-1.867 1.489-.77.385-1.648.55-2.637.55a7.992 7.992 0 0 1-2.91-.55c-.99-.331-1.978-.938-2.912-1.765Zm21.365 1.819a7.297 7.297 0 0 1-2.691.496 7.297 7.297 0 0 1-2.692-.496c-.823-.331-1.538-.827-2.142-1.378a6.03 6.03 0 0 1-1.373-2.095 7.006 7.006 0 0 1-.494-2.591c0-.938.165-1.82.494-2.592a6.3 6.3 0 0 1 1.373-2.095c.604-.606 1.319-1.047 2.142-1.378a7.297 7.297 0 0 1 2.692-.496c.933 0 1.867.165 2.691.496.824.33 1.538.827 2.142 1.378.604.552 1.044 1.268 1.373 2.095a7 7 0 0 1 .494 2.591c0 .938-.164 1.82-.494 2.592a6.302 6.302 0 0 1-1.373 2.095c-.604.606-1.318 1.047-2.142 1.378Zm-.22-8.656c-.604-.661-1.428-1.047-2.471-1.047-1.044 0-1.868.33-2.472 1.047-.604.662-.934 1.544-.934 2.591 0 1.048.33 1.875.934 2.592.604.716 1.428 1.047 2.472 1.047 1.043 0 1.867-.33 2.471-1.047.604-.717.934-1.544.934-2.591 0-1.048-.33-1.93-.934-2.592Zm6.042-4.079h3.296v10.199h6.206V36h-9.502V22.714Zm19.389 0h3.295v6.23c0 1.047-.055 1.764-.11 2.204-.275 1.434-.934 2.592-1.922 3.474-.989.882-2.307 1.323-3.79 1.323s-2.746-.441-3.79-1.323c-1.043-.882-1.703-2.04-1.977-3.474-.11-.44-.165-1.212-.165-2.205v-6.23h3.295v7.057c0 .386.055.772.165 1.213.165.607.44 1.048.824 1.433.385.331.934.552 1.538.552.66 0 1.154-.166 1.538-.552.384-.385.66-.826.824-1.433a4.31 4.31 0 0 0 .165-1.213v-7.056h.11Zm4.888 0h11.699v3.032h-4.175v10.199h-3.295V25.8h-4.174v-3.087h-.055ZM65.415 36V22.714h3.296V36h-3.296Zm14.555-.551a7.296 7.296 0 0 1-2.69.496 7.297 7.297 0 0 1-2.692-.496c-.824-.331-1.538-.827-2.142-1.378a6.033 6.033 0 0 1-1.373-2.095 7.007 7.007 0 0 1-.495-2.591c0-.938.165-1.82.495-2.592a6.304 6.304 0 0 1 1.373-2.095c.549-.55 1.318-1.047 2.142-1.378a7.297 7.297 0 0 1 2.691-.496c.934 0 1.868.165 2.691.496.824.33 1.538.827 2.142 1.378.605.552 1.044 1.268 1.374 2.095a7 7 0 0 1 .494 2.591c0 .938-.165 1.82-.494 2.592a6.3 6.3 0 0 1-1.374 2.095c-.604.606-1.318 1.047-2.142 1.378Zm-.22-8.656c-.603-.661-1.427-1.047-2.47-1.047-1.044 0-1.868.33-2.472 1.047-.605.662-.934 1.544-.934 2.591 0 1.048.33 1.875.934 2.592.604.661 1.428 1.047 2.471 1.047 1.044 0 1.868-.33 2.472-1.047.604-.662.933-1.544.933-2.591 0-1.048-.33-1.93-.933-2.592ZM97.93 36h-1.867l-6.975-7.498V36h-3.295V22.714h1.867l7.03 7.497v-7.497h3.296V36h-.055Zm1.594-2.37 1.977-2.371c1.263 1.102 2.527 1.654 3.79 1.654.329 0 .604-.055.879-.11.274-.056.549-.166.769-.331.219-.166.329-.386.329-.607 0-.11-.055-.22-.11-.33-.055-.11-.165-.166-.274-.276-.11-.055-.275-.166-.385-.22a2.21 2.21 0 0 0-.549-.166c-.275-.055-.44-.11-.604-.11-.165-.056-.385-.056-.659-.11-.275-.056-.55-.11-.714-.11a13.476 13.476 0 0 1-1.264-.332 5.195 5.195 0 0 1-1.153-.496 7.702 7.702 0 0 1-.989-.661c-.274-.276-.494-.552-.659-.938a3.341 3.341 0 0 1-.275-1.323c0-1.157.44-2.15 1.319-2.922.879-.771 2.032-1.157 3.57-1.157 1.812 0 3.515.606 5.053 1.764l-1.868 2.37c-.439-.33-.933-.661-1.537-.827-.605-.165-1.154-.33-1.703-.33-.439 0-.824.055-1.099.165-.329.11-.494.33-.494.606 0 .11 0 .221.055.276.055.11.11.166.275.22.109.056.274.11.384.166.11.055.275.11.549.165.22.055.44.11.605.11.164.056.439.056.768.11.385.056.715.111.989.166.275.055.604.166.989.276.384.11.659.22.933.386.275.165.55.33.824.551.275.22.495.441.659.717.165.276.33.606.44.937.11.386.165.772.165 1.213 0 .772-.22 1.488-.659 2.15-.44.662-1.099 1.103-1.868 1.489-.769.385-1.648.55-2.636.55a7.988 7.988 0 0 1-2.911-.55c-1.044-.331-1.978-.938-2.911-1.765Z" fill="#1D1D1B"/></svg>